<svg xmlns="http://www.w3.org/2000/svg" version="1.1" xmlns:xlink="http://www.w3.org/1999/xlink" xmlns:svgjs="http://svgjs.dev/svgjs" viewBox="0 0 800 800"><defs><linearGradient x1="50%" y1="0%" x2="50%" y2="100%" id="ffflurry-grad" gradientTransform="rotate(270)"><stop stop-color="hsl(0, 0%, 100%)" stop-opacity="1" offset="0%"></stop><stop stop-color="hsl(0, 0%, 80%)" stop-opacity="1" offset="45%"></stop><stop stop-color="hsl(0, 0%, 71%)" stop-opacity="1" offset="100%"></stop></linearGradient></defs><rect width="100%" height="100%" fill="hsl(0, 0%, 100%)"></rect><g fill="url(#ffflurry-grad)"><rect width="402" height="6" x="107" y="218" rx="3" transform="rotate(63, 308, 221)" opacity="0.33"></rect><rect width="325" height="6" x="408.5" y="659" rx="3" transform="rotate(63, 571, 662)" opacity="0.44"></rect><rect width="325" height="6" x="309.5" y="505" rx="3" transform="rotate(63, 472, 508)" opacity="0.33"></rect><rect width="305" height="6" x="611.5" y="131" rx="3" transform="rotate(63, 764, 134)" opacity="0.48"></rect><rect width="121" height="6" x="202.5" y="760" rx="3" transform="rotate(63, 263, 763)" opacity="0.97"></rect><rect width="372" height="6" x="411" y="284" rx="3" transform="rotate(63, 597, 287)" opacity="0.08"></rect><rect width="134" height="6" x="205" y="151" rx="3" transform="rotate(63, 272, 154)" opacity="0.98"></rect><rect width="540" height="6" x="501" y="547" rx="3" transform="rotate(63, 771, 550)" opacity="0.27"></rect><rect width="249" height="6" x="71.5" y="122" rx="3" transform="rotate(63, 196, 125)" opacity="0.99"></rect><rect width="657" height="6" x="342.5" y="132" rx="3" transform="rotate(63, 671, 135)" opacity="0.72"></rect><rect width="316" height="6" x="614" y="467" rx="3" transform="rotate(63, 772, 470)" opacity="0.27"></rect><rect width="230" height="6" x="49" y="285" rx="3" transform="rotate(63, 164, 288)" opacity="0.93"></rect><rect width="475" height="6" x="-63.5" y="399" rx="3" transform="rotate(63, 174, 402)" opacity="0.18"></rect><rect width="321" height="6" x="190.5" y="120" rx="3" transform="rotate(63, 351, 123)" opacity="0.31"></rect><rect width="58" height="6" x="694" y="85" rx="3" transform="rotate(63, 723, 88)" opacity="0.25"></rect><rect width="281" height="6" x="445.5" y="351" rx="3" transform="rotate(63, 586, 354)" opacity="0.37"></rect><rect width="391" height="6" x="548.5" y="260" rx="3" transform="rotate(63, 744, 263)" opacity="0.79"></rect><rect width="344" height="6" x="-47" y="143" rx="3" transform="rotate(63, 125, 146)" opacity="0.28"></rect><rect width="397" height="6" x="464.5" y="366" rx="3" transform="rotate(63, 663, 369)" opacity="0.37"></rect><rect width="168" height="6" x="99" y="591" rx="3" transform="rotate(63, 183, 594)" opacity="0.27"></rect><rect width="190" height="6" x="-51" y="116" rx="3" transform="rotate(63, 44, 119)" opacity="0.44"></rect><rect width="312" height="6" x="432" y="128" rx="3" transform="rotate(63, 588, 131)" opacity="0.45"></rect><rect width="342" height="6" x="68" y="364" rx="3" transform="rotate(63, 239, 367)" opacity="0.50"></rect><rect width="252" height="6" x="238" y="584" rx="3" transform="rotate(63, 364, 587)" opacity="0.33"></rect><rect width="486" height="6" x="171" y="526" rx="3" transform="rotate(63, 414, 529)" opacity="0.08"></rect><rect width="349" height="6" x="102.5" y="44" rx="3" transform="rotate(63, 277, 47)" opacity="0.97"></rect><rect width="366" height="6" x="-77" y="679" rx="3" transform="rotate(63, 106, 682)" opacity="0.92"></rect><rect width="326" height="6" x="301" y="28" rx="3" transform="rotate(63, 464, 31)" opacity="0.16"></rect><rect width="646" height="6" x="143" y="670" rx="3" transform="rotate(63, 466, 673)" opacity="0.42"></rect><rect width="246" height="6" x="408" y="20" rx="3" transform="rotate(63, 531, 23)" opacity="0.68"></rect><rect width="198" height="6" x="528" y="494" rx="3" transform="rotate(63, 627, 497)" opacity="0.58"></rect><rect width="364" height="6" x="-78" y="774" rx="3" transform="rotate(63, 104, 777)" opacity="0.94"></rect><rect width="354" height="6" x="299" y="584" rx="3" transform="rotate(63, 476, 587)" opacity="0.71"></rect><rect width="68" height="6" x="384" y="754" rx="3" transform="rotate(63, 418, 757)" opacity="0.24"></rect><rect width="96" height="6" x="623" y="284" rx="3" transform="rotate(63, 671, 287)" opacity="0.75"></rect><rect width="286" height="6" x="222" y="289" rx="3" transform="rotate(63, 365, 292)" opacity="0.14"></rect><rect width="744" height="6" x="35" y="223" rx="3" transform="rotate(63, 407, 226)" opacity="0.24"></rect><rect width="272" height="6" x="577" y="550" rx="3" transform="rotate(63, 713, 553)" opacity="0.38"></rect><rect width="187" height="6" x="513.5" y="24" rx="3" transform="rotate(63, 607, 27)" opacity="0.54"></rect><rect width="333" height="6" x="370.5" y="71" rx="3" transform="rotate(63, 537, 74)" opacity="0.91"></rect><rect width="561" height="6" x="-245.5" y="196" rx="3" transform="rotate(63, 35, 199)" opacity="0.08"></rect><rect width="227" height="6" x="656.5" y="353" rx="3" transform="rotate(63, 770, 356)" opacity="0.73"></rect><rect width="429" height="6" x="63.5" y="555" rx="3" transform="rotate(63, 278, 558)" opacity="0.26"></rect><rect width="500" height="6" x="-49" y="531" rx="3" transform="rotate(63, 201, 534)" opacity="0.83"></rect><rect width="321" height="6" x="63.5" y="241" rx="3" transform="rotate(63, 224, 244)" opacity="0.17"></rect><rect width="256" height="6" x="415" y="601" rx="3" transform="rotate(63, 543, 604)" opacity="0.21"></rect><rect width="495" height="6" x="69.5" y="436" rx="3" transform="rotate(63, 317, 439)" opacity="0.60"></rect><rect width="207" height="6" x="-77.5" y="38" rx="3" transform="rotate(63, 26, 41)" opacity="0.47"></rect><rect width="323" height="6" x="365.5" y="450" rx="3" transform="rotate(63, 527, 453)" opacity="0.77"></rect><rect width="104" height="6" x="360" y="143" rx="3" transform="rotate(63, 412, 146)" opacity="0.20"></rect><rect width="182" height="6" x="44" y="551" rx="3" transform="rotate(63, 135, 554)" opacity="0.43"></rect><rect width="50" height="6" x="440" y="289" rx="3" transform="rotate(63, 465, 292)" opacity="0.70"></rect><rect width="648" height="6" x="316" y="712" rx="3" transform="rotate(63, 640, 715)" opacity="0.59"></rect><rect width="71" height="6" x="-18.5" y="749" rx="3" transform="rotate(63, 17, 752)" opacity="0.46"></rect><rect width="141" height="6" x="80.5" y="236" rx="3" transform="rotate(63, 151, 239)" opacity="0.19"></rect><rect width="143" height="6" x="169.5" y="194" rx="3" transform="rotate(63, 241, 197)" opacity="0.11"></rect><rect width="195" height="6" x="8.5" y="618" rx="3" transform="rotate(63, 106, 621)" opacity="0.75"></rect><rect width="322" height="6" x="-35" y="732" rx="3" transform="rotate(63, 126, 735)" opacity="0.14"></rect><rect width="162" height="6" x="77" y="664" rx="3" transform="rotate(63, 158, 667)" opacity="0.88"></rect><rect width="192" height="6" x="9" y="202" rx="3" transform="rotate(63, 105, 205)" opacity="0.12"></rect><rect width="182" height="6" x="678" y="771" rx="3" transform="rotate(63, 769, 774)" opacity="0.37"></rect><rect width="440" height="6" x="123" y="169" rx="3" transform="rotate(63, 343, 172)" opacity="0.87"></rect><rect width="178" height="6" x="693" y="287" rx="3" transform="rotate(63, 782, 290)" opacity="0.91"></rect><rect width="139" height="6" x="596.5" y="605" rx="3" transform="rotate(63, 666, 608)" opacity="0.72"></rect><rect width="256" height="6" x="594" y="318" rx="3" transform="rotate(63, 722, 321)" opacity="0.57"></rect><rect width="497" height="6" x="251.5" y="228" rx="3" transform="rotate(63, 500, 231)" opacity="0.70"></rect><rect width="312" height="6" x="34" y="632" rx="3" transform="rotate(63, 190, 635)" opacity="0.44"></rect><rect width="770" height="6" x="-334" y="295" rx="3" transform="rotate(63, 51, 298)" opacity="0.45"></rect><rect width="65" height="6" x="193.5" y="453" rx="3" transform="rotate(63, 226, 456)" opacity="0.59"></rect><rect width="496" height="6" x="161" y="349" rx="3" transform="rotate(63, 409, 352)" opacity="0.74"></rect><rect width="380" height="6" x="397" y="517" rx="3" transform="rotate(63, 587, 520)" opacity="0.72"></rect><rect width="209" height="6" x="220.5" y="82" rx="3" transform="rotate(63, 325, 85)" opacity="0.57"></rect><rect width="410" height="6" x="83" y="265" rx="3" transform="rotate(63, 288, 268)" opacity="0.14"></rect><rect width="74" height="6" x="569" y="567" rx="3" transform="rotate(63, 606, 570)" opacity="0.12"></rect><rect width="331" height="6" x="368.5" y="520" rx="3" transform="rotate(63, 534, 523)" opacity="0.76"></rect><rect width="59" height="6" x="155.5" y="183" rx="3" transform="rotate(63, 185, 186)" opacity="0.38"></rect><rect width="224" height="6" x="255" y="401" rx="3" transform="rotate(63, 367, 404)" opacity="0.30"></rect><rect width="115" height="6" x="237.5" y="315" rx="3" transform="rotate(63, 295, 318)" opacity="0.96"></rect><rect width="739" height="6" x="-241.5" y="465" rx="3" transform="rotate(63, 128, 468)" opacity="0.83"></rect><rect width="452" height="6" x="160" y="667" rx="3" transform="rotate(63, 386, 670)" opacity="0.56"></rect><rect width="432" height="6" x="360" y="468" rx="3" transform="rotate(63, 576, 471)" opacity="0.87"></rect><rect width="211" height="6" x="669.5" y="44" rx="3" transform="rotate(63, 775, 47)" opacity="0.56"></rect><rect width="407" height="6" x="496.5" y="27" rx="3" transform="rotate(63, 700, 30)" opacity="0.67"></rect><rect width="113" height="6" x="711.5" y="216" rx="3" transform="rotate(63, 768, 219)" opacity="0.77"></rect><rect width="462" height="6" x="297" y="138" rx="3" transform="rotate(63, 528, 141)" opacity="0.38"></rect><rect width="517" height="6" x="-34.5" y="303" rx="3" transform="rotate(63, 224, 306)" opacity="0.59"></rect><rect width="54" height="6" x="102" y="346" rx="3" transform="rotate(63, 129, 349)" opacity="0.79"></rect><rect width="206" height="6" x="644" y="642" rx="3" transform="rotate(63, 747, 645)" opacity="0.62"></rect><rect width="184" height="6" x="46" y="88" rx="3" transform="rotate(63, 138, 91)" opacity="0.17"></rect><rect width="396" height="6" x="152" y="30" rx="3" transform="rotate(63, 350, 33)" opacity="0.53"></rect><rect width="184" height="6" x="652" y="400" rx="3" transform="rotate(63, 744, 403)" opacity="0.95"></rect><rect width="192" height="6" x="574" y="485" rx="3" transform="rotate(63, 670, 488)" opacity="0.90"></rect><rect width="320" height="6" x="311" y="414" rx="3" transform="rotate(63, 471, 417)" opacity="0.54"></rect><rect width="305" height="6" x="461.5" y="420" rx="3" transform="rotate(63, 614, 423)" opacity="0.57"></rect><rect width="382" height="6" x="119" y="714" rx="3" transform="rotate(63, 310, 717)" opacity="0.84"></rect><rect width="406" height="6" x="-30" y="707" rx="3" transform="rotate(63, 173, 710)" opacity="0.29"></rect><rect width="269" height="6" x="76.5" y="748" rx="3" transform="rotate(63, 211, 751)" opacity="0.97"></rect><rect width="241" height="6" x="-83.5" y="663" rx="3" transform="rotate(63, 37, 666)" opacity="0.32"></rect><rect width="133" height="6" x="309.5" y="82" rx="3" transform="rotate(63, 376, 85)" opacity="0.47"></rect><rect width="481" height="6" x="-158.5" y="40" rx="3" transform="rotate(63, 82, 43)" opacity="0.43"></rect><rect width="137" height="6" x="672.5" y="175" rx="3" transform="rotate(63, 741, 178)" opacity="0.98"></rect><rect width="512" height="6" x="145" y="25" rx="3" transform="rotate(63, 401, 28)" opacity="0.42"></rect><rect width="84" height="6" x="271" y="652" rx="3" transform="rotate(63, 313, 655)" opacity="0.82"></rect><rect width="420" height="6" x="-147" y="722" rx="3" transform="rotate(63, 63, 725)" opacity="0.49"></rect><rect width="125" height="6" x="354.5" y="79" rx="3" transform="rotate(63, 417, 82)" opacity="0.30"></rect><rect width="178" height="6" x="469" y="750" rx="3" transform="rotate(63, 558, 753)" opacity="0.71"></rect><rect width="508" height="6" x="455" y="450" rx="3" transform="rotate(63, 709, 453)" opacity="0.39"></rect><rect width="489" height="6" x="265.5" y="332" rx="3" transform="rotate(63, 510, 335)" opacity="0.78"></rect><rect width="404" height="6" x="361" y="213" rx="3" transform="rotate(63, 563, 216)" opacity="0.71"></rect><rect width="384" height="6" x="-49" y="27" rx="3" transform="rotate(63, 143, 30)" opacity="0.83"></rect><rect width="407" height="6" x="163.5" y="488" rx="3" transform="rotate(63, 367, 491)" opacity="0.64"></rect><rect width="600" height="6" x="-44" y="621" rx="3" transform="rotate(63, 256, 624)" opacity="0.66"></rect><rect width="117" height="6" x="478.5" y="391" rx="3" transform="rotate(63, 537, 394)" opacity="0.50"></rect><rect width="54" height="6" x="265" y="492" rx="3" transform="rotate(63, 292, 495)" opacity="0.98"></rect><rect width="116" height="6" x="247" y="375" rx="3" transform="rotate(63, 305, 378)" opacity="0.25"></rect><rect width="384" height="6" x="496" y="219" rx="3" transform="rotate(63, 688, 222)" opacity="0.17"></rect><rect width="25" height="6" x="294.5" y="13" rx="3" transform="rotate(63, 307, 16)" opacity="0.13"></rect><rect width="225" height="6" x="140.5" y="95" rx="3" transform="rotate(63, 253, 98)" opacity="0.20"></rect><rect width="206" height="6" x="-50" y="777" rx="3" transform="rotate(63, 53, 780)" opacity="0.82"></rect><rect width="514" height="6" x="213" y="161" rx="3" transform="rotate(63, 470, 164)" opacity="0.66"></rect><rect width="36" height="6" x="215" y="683" rx="3" transform="rotate(63, 233, 686)" opacity="0.48"></rect><rect width="160" height="6" x="404" y="760" rx="3" transform="rotate(63, 484, 763)" opacity="0.44"></rect><rect width="244" height="6" x="505" y="196" rx="3" transform="rotate(63, 627, 199)" opacity="0.35"></rect><rect width="154" height="6" x="-50" y="579" rx="3" transform="rotate(63, 27, 582)" opacity="0.84"></rect><rect width="89" height="6" x="424.5" y="91" rx="3" transform="rotate(63, 469, 94)" opacity="0.83"></rect><rect width="99" height="6" x="118.5" y="774" rx="3" transform="rotate(63, 168, 777)" opacity="0.87"></rect><rect width="341" height="6" x="528.5" y="753" rx="3" transform="rotate(63, 699, 756)" opacity="0.81"></rect><rect width="571" height="6" x="-218.5" y="529" rx="3" transform="rotate(63, 67, 532)" opacity="0.92"></rect><rect width="248" height="6" x="294" y="433" rx="3" transform="rotate(63, 418, 436)" opacity="0.16"></rect><rect width="477" height="6" x="391.5" y="75" rx="3" transform="rotate(63, 630, 78)" opacity="0.21"></rect><rect width="169" height="6" x="-40.5" y="420" rx="3" transform="rotate(63, 44, 423)" opacity="0.71"></rect><rect width="106" height="6" x="293" y="763" rx="3" transform="rotate(63, 346, 766)" opacity="0.35"></rect><rect width="560" height="6" x="-69" y="33" rx="3" transform="rotate(63, 211, 36)" opacity="0.99"></rect><rect width="161" height="6" x="688.5" y="709" rx="3" transform="rotate(63, 769, 712)" opacity="0.99"></rect></g></svg>