<svg xmlns="http://www.w3.org/2000/svg" version="1.1" xmlns:xlink="http://www.w3.org/1999/xlink" xmlns:svgjs="http://svgjs.dev/svgjs" viewBox="0 0 800 800"><g transform="matrix(0.9455185755993168,-0.32556815445715664,0.32556815445715664,0.9455185755993168,35.56530797741061,-73.9801684568641)"><path d="M569.057055523369 59.40957857243217C585.7293684497856 49.785547904500646 606.2706925853706 49.785547904500646 622.9430055117873 59.4122728699316L919.0570778881431 230.37353210068665C935.7293908145598 239.99756276861814 946.0000528823523 257.7880091572945 946.0000528823523 277.03876479065696V618.961283252167C946.0000528823523 638.2120388855295 935.7293908145598 656.0024852742059 919.0570778881431 665.6292102396368L622.9430055117873 836.5904694703918C606.2706925853706 846.2145001383233 585.7293684497856 846.2145001383233 569.057055523369 836.5877751728924L272.9429831470131 665.6265159421373C256.2706702205965 656.0024852742059 246.00000815280396 638.2120388855295 246.00000815280396 618.961283252167V277.03876479065696C246.00000815280396 257.7880091572945 256.2706702205965 239.99756276861814 272.9429831470131 230.37083780318727L569.057055523369 59.40957857243217Z " stroke-width="44" stroke="#969696" fill="none" opacity="0.02" transform="rotate(78, 184, 192)"></path><path d="M546.092687181178 42.13510299775538C562.4335386482242 32.70240722524588 582.566481696828 32.70240722524588 598.9073331638741 42.13774373005458L889.1343757679858 209.70013030705536C905.475227235032 219.1328260795649 915.5416987593339 236.56958145075203 915.5416987593339 255.43761372807035V590.5623868820718C915.5416987593339 609.4304191593901 905.475227235032 626.8671745305774 889.1343757679858 636.3025110353859L598.9073331638741 803.8648976123866C582.566481696828 813.2975933848961 562.4335386482242 813.2975933848961 546.092687181178 803.8622568800876L255.8656445770663 636.2998703030868C239.52479311002014 626.8671745305774 229.45832158571824 609.4304191593901 229.45832158571824 590.5623868820718V255.43761372807035C229.45832158571824 236.56958145075203 239.52479311002014 219.1328260795649 255.8656445770663 209.69748957475622L546.092687181178 42.13510299775538Z " stroke-width="41.666666666666664" stroke="#999999" fill="none" opacity="0.07333333333333333" transform="rotate(66.83333333333333, 184, 192)"></path><path d="M523.128318838987 24.86065794065678C539.1377088466627 15.619297063569235 558.8622708082853 15.619297063569235 574.8716608159609 24.86324510775563L859.2116736478283 189.0267590310021C875.221063655504 198.26811990808966 885.0833446363155 215.35118426178764 885.0833446363155 233.83649318306175V562.1635210295547C885.0833446363155 580.6488299508286 875.221063655504 597.7318943045267 859.2116736478283 606.975842348713L574.8716608159609 771.1393562719595C558.8622708082853 780.380717149047 539.1377088466627 780.380717149047 523.128318838987 771.1367691048606L238.7883060071195 606.9732551816143C222.77891599944377 597.7318943045267 212.91663501863246 580.6488299508286 212.91663501863246 562.1635210295547V233.83649318306175C212.91663501863246 215.35118426178764 222.77891599944377 198.26811990808966 238.7883060071195 189.0241718639033L523.128318838987 24.86065794065678Z " stroke-width="39.333333333333336" stroke="#9b9b9b" fill="none" opacity="0.12666666666666668" transform="rotate(55.66666666666667, 184, 192)"></path><path d="M500.16401153195216 7.586182365980051C515.8419400802575 -1.4638436156855335 535.1581209548988 -1.4638436156855335 550.8360495032041 7.588715967878613L829.2890325628273 168.3533572373708C844.9669611111326 177.4033832190364 854.6250515484533 194.13275655524524 854.6250515484533 212.23534212047502V533.7646246594594C854.6250515484533 551.8672102246892 844.9669611111326 568.596583560898 829.2890325628273 577.6491431444621L550.8360495032041 738.4137844139543C535.1581209548988 747.4638103956199 515.8419400802575 747.4638103956199 500.16401153195216 738.4112508120558L221.71102847232896 577.6466095425636C206.03309992402365 568.596583560898 196.375009486703 551.8672102246892 196.375009486703 533.7646246594594V212.23534212047502C196.375009486703 194.13275655524524 206.03309992402365 177.4033832190364 221.71102847232896 168.3508236354723L500.16401153195216 7.586182365980051Z " stroke-width="37" stroke="#9d9d9d" fill="none" opacity="0.18" transform="rotate(44.5, 184, 192)"></path><path d="M477.1996431897612 -9.688262691118553C492.546110278696 -18.546953777362205 511.453910066356 -18.546953777362205 526.800377155291 -9.68578265442028L799.36633044267 147.67998596131758C814.7127975316049 156.53867704756124 824.1666974254349 172.9143593662809 824.1666974254349 190.63422157546643V505.36575880694215C824.1666974254349 523.0856210161278 814.7127975316049 539.4613033348475 799.36633044267 548.3224744577893L526.800377155291 705.6882430735271C511.453910066356 714.5469341597708 492.546110278696 714.5469341597708 477.1996431897612 705.6857630368289L204.63368990238212 548.3199944210911C189.28722281344727 539.4613033348475 179.83332291961727 523.0856210161278 179.83332291961727 505.36575880694215V190.63422157546643C179.83332291961727 172.9143593662809 189.28722281344727 156.53867704756124 204.63368990238212 147.67750592461937L477.1996431897612 -9.688262691118553Z " stroke-width="34.666666666666664" stroke="#9f9f9f" fill="none" opacity="0.23333333333333334" transform="rotate(33.333333333333336, 184, 192)"></path><path d="M454.23527484757005 -26.962707748217213C469.25028047713454 -35.63006393903885 487.7496991778132 -35.63006393903885 502.7647048073777 -26.960281276719172L769.4436283225125 127.00661468526437C784.458633952077 135.673970876086 793.7083433024164 151.69596217731652 793.7083433024164 169.03310103045783V476.966892954425C793.7083433024164 494.3040318075664 784.458633952077 510.3260231087968 769.4436283225125 518.9958057711165L502.7647048073777 672.9627017331001C487.7496991778132 681.6300579239216 469.25028047713454 681.6300579239216 454.23527484757005 672.960275261602L187.55635133243533 518.9933792996185C172.5413457028709 510.3260231087968 163.2916363525315 494.3040318075664 163.2916363525315 476.966892954425V169.03310103045783C163.2916363525315 151.69596217731652 172.5413457028709 135.673970876086 187.55635133243533 127.00418821376638L454.23527484757005 -26.962707748217213Z " stroke-width="32.33333333333333" stroke="#a2a2a2" fill="none" opacity="0.2866666666666667" transform="rotate(22.16666666666667, 184, 192)"></path><path d="M431.27096754053537 -44.237152805315816C445.9545117107293 -52.71317410071549 464.04554932442693 -52.71317410071549 478.7290934946209 -44.23477989901812L739.5209872375115 106.33324340921115C754.2045314077055 114.80926470461088 763.2500502145542 130.47756498835219 763.2500502145542 147.43198048544934V448.568027101908C763.2500502145542 465.522442599005 754.2045314077055 481.19074288274635 739.5209872375115 489.6691370844437L478.7290934946209 640.237160392673C464.04554932442693 648.7131816880726 445.9545117107293 648.7131816880726 431.27096754053537 640.2347874863752L170.4790737976448 489.66676417814597C155.79552962745078 481.19074288274635 146.75001082060203 465.522442599005 146.75001082060203 448.568027101908V147.43198048544934C146.75001082060203 130.47756498835219 155.79552962745078 114.80926470461088 170.4790737976448 106.33087050291351L431.27096754053537 -44.237152805315816Z " stroke-width="30" stroke="#a4a4a4" fill="none" opacity="0.34" transform="rotate(11, 184, 192)"></path><path d="M408.30659919834443 -61.51159786241442C422.65868190916797 -69.79628426239213 440.34133843588415 -69.79628426239213 454.6934211467078 -61.509278521317015L709.5982851173542 85.65987213315793C723.9503678281777 93.9445585331357 732.7916960915359 109.25916779938791 732.7916960915359 125.83085994044075V420.16916124939075C732.7916960915359 436.7408533904436 723.9503678281777 452.0554626566958 709.5982851173542 460.34246839777086L454.6934211467078 607.5116190522459C440.34133843588415 615.7963054522236 422.65868190916797 615.7963054522236 408.30659919834443 607.5092997111485L153.401735227698 460.34014905667345C139.0496525168744 452.0554626566958 130.2083242535163 436.7408533904436 130.2083242535163 420.16916124939075V125.83085994044075C130.2083242535163 109.25916779938791 139.0496525168744 93.9445585331357 153.401735227698 85.65755279206064L408.30659919834443 -61.51159786241442Z " stroke-width="27.666666666666664" stroke="#a6a6a6" fill="none" opacity="0.39333333333333337" transform="rotate(-0.1666666666666572, 184, 192)"></path><path d="M385.34223085615326 -78.78607343709115C399.3628521076065 -86.8794249416469 416.6371275473414 -86.8794249416469 430.6577487987945 -78.78380766119403L679.6755829971967 64.98647033952665C693.6962042486499 73.0798218440824 702.3333419685174 88.04074009284545 702.3333419685174 104.22970887785408V391.7702648792954C702.3333419685174 407.95923366430407 693.6962042486499 422.920151913067 679.6755829971967 431.01576919352L430.6577487987945 574.7860471942406C416.6371275473414 582.8793986987964 399.3628521076065 582.8793986987964 385.34223085615326 574.7837814183436L136.32439665775115 431.0135034176229C122.30377540629797 422.920151913067 113.66663768643053 407.95923366430407 113.66663768643053 391.7702648792954V104.22970887785408C113.66663768643053 88.04074009284545 122.30377540629797 73.0798218440824 136.32439665775115 64.98420456362953L385.34223085615326 -78.78607343709115Z " stroke-width="25.333333333333332" stroke="#a8a8a8" fill="none" opacity="0.4466666666666667" transform="rotate(-11.333333333333329, 184, 192)"></path><path d="M362.3779235491186 -96.06051849418981C376.0670833412014 -103.96253510332355 392.93297769395485 -103.96253510332355 406.6221374860377 -96.05830628349293L649.7529419121956 44.31309906347343C663.4421017042783 52.215115672607226 671.8750488806552 66.82234290388107 671.8750488806552 82.62858833284554V363.37139902677836C671.8750488806552 379.17764445574267 663.4421017042783 393.78487168701656 649.7529419121956 401.6891005068471L406.6221374860377 542.0605058538135C392.93297769395485 549.9625224629473 376.0670833412014 549.9625224629473 362.3779235491186 542.0582936431167L119.24711912296061 401.6868882961503C105.55795933087785 393.78487168701656 97.12501215450106 379.17764445574267 97.12501215450106 363.37139902677836V82.62858833284554C97.12501215450106 66.82234290388107 105.55795933087785 52.215115672607226 119.24711912296061 44.31088685277666L362.3779235491186 -96.06051849418981Z " stroke-width="23" stroke="#aaaaaa" fill="none" opacity="0.5" transform="rotate(-22.5, 184, 192)"></path><path d="M339.41355520692764 -113.33496355128841C352.77125353963993 -121.04564526500019 369.2287668054123 -121.04564526500019 382.5864651381246 -113.33280490579182L619.8302397920382 23.63972778742027C633.1879381247506 31.35040950113205 641.4166947576368 45.60394571491679 641.4166947576368 61.02746778783694V334.9725331742611C641.4166947576368 350.3960552471815 633.1879381247506 364.6495914609661 619.8302397920382 372.3624318201744L382.5864651381246 509.33496451338647C369.2287668054123 517.0456462270984 352.77125353963993 517.0456462270984 339.41355520692764 509.33280586789L102.16978055301382 372.3602731746779C88.81208222030148 364.6495914609661 80.58332558741535 350.3960552471815 80.58332558741535 334.9725331742611V61.02746778783694C80.58332558741535 45.60394571491679 88.81208222030148 31.35040950113205 102.16978055301382 23.63756914192379L339.41355520692764 -113.33496355128841Z " stroke-width="20.666666666666664" stroke="#acacac" fill="none" opacity="0.5533333333333333" transform="rotate(-33.66666666666666, 184, 192)"></path><path d="M316.4491868647366 -130.609408608387C329.47542373807846 -138.12875542667686 345.52455591686953 -138.12875542667686 358.5507927902114 -130.60730352809077L589.907537671881 2.966356511367053C602.933774545223 10.485703329656872 610.9583406346184 24.38554852595246 610.9583406346184 39.4263472428284V306.5736673217441C610.9583406346184 321.61446603861987 602.933774545223 335.51431123491557 589.907537671881 343.03576313350163L358.5507927902114 476.6094231729594C345.52455591686953 484.1287699912492 329.47542373807846 484.1287699912492 316.4491868647366 476.60731809266315L85.09244198306703 343.0336580532054C72.0662051097251 335.51431123491557 64.04163902032957 321.61446603861987 64.04163902032957 306.5736673217441V39.4263472428284C64.04163902032957 24.38554852595246 72.0662051097251 10.485703329656872 85.09244198306703 2.9642514310708066L316.4491868647366 -130.609408608387Z " stroke-width="18.333333333333332" stroke="#aeaeae" fill="none" opacity="0.6066666666666667" transform="rotate(-44.83333333333333, 184, 192)"></path><path d="M293.4848795577018 -147.88385366548567C306.17965497167324 -155.2118655883535 321.820406063483 -155.2118655883535 334.51518147745446 -147.88180215038966L559.9848965868798 -17.707014764686164C572.6796720008513 -10.379002841818306 580.5000475467562 3.16715133698807 580.5000475467562 17.825226697819858V278.17480146922685C580.5000475467562 292.83287683005847 572.6796720008513 306.379031008865 559.9848965868798 313.7090944468289L334.51518147745446 443.8838818325323C321.820406063483 451.2118937554002 306.17965497167324 451.2118937554002 293.4848795577018 443.8818303174363L68.01516444827644 313.70704293173276C55.32038903430498 306.379031008865 47.5000134884001 292.83287683005847 47.5000134884001 278.17480146922685V17.825226697819858C47.5000134884001 3.16715133698807 55.32038903430498 -10.379002841818306 68.01516444827644 -17.709066279782064L293.4848795577018 -147.88385366548567Z " stroke-width="16" stroke="#b0b0b0" fill="none" opacity="0.66" transform="rotate(-56, 184, 192)"></path></g></svg>